<?xml version="1.0" encoding="utf-8"?>
<!-- Generator: Adobe Illustrator 23.0.2, SVG Export Plug-In . SVG Version: 6.00 Build 0)  -->
<svg version="1.1" id="Capa_1" xmlns="http://www.w3.org/2000/svg" xmlns:xlink="http://www.w3.org/1999/xlink" x="0px" y="0px"
	 viewBox="0 0 512 512" style="enable-background:new 0 0 512 512;" xml:space="preserve">
<style type="text/css">
	.st0{fill:#FFFFFF;}
</style>
<g>
	<path class="st0" d="M308.8,241.2c22.1-17.5,36.5-44.6,36.5-74.9c0-52.7-43-95.5-96-95.5c-52.9,0-96,42.8-96,95.5
		c0,3.5,0.2,6.9,0.6,10.2c-10.9-6-23.4-9.4-36.7-9.4c-42.3,0-76.6,34.2-76.6,76.3c0,21.9,9.4,41.8,24.3,55.7
		c-33.1,14.5-56.3,47.7-56.3,86.1v88.8c0,16.3,13.2,29.6,29.6,29.6h107.5h9.7h197.6c19,0,34.3-15.4,34.3-34.3V352.8
		C387.2,301.5,354.4,257.7,308.8,241.2L308.8,241.2z M249.2,99.8c36.9,0,67,29.9,67,66.5s-30.1,66.5-67,66.5s-67-29.9-67-66.5
		S212.3,99.8,249.2,99.8z M117.1,196.1c26.3,0,47.6,21.2,47.6,47.3c0,3.8-0.5,7.5-1.4,11.2c-13.3,9.1-24.8,20.8-33.5,34.4
		c-4.2,1.2-8.4,1.7-12.9,1.7c-26.2,0-47.6-21.2-47.6-47.3C69.5,217.4,90.9,196.1,117.1,196.1L117.1,196.1z M37.5,473.9v-88.8
		c0-35.8,29.1-64.9,64.9-64.9h13.4c-3,10.3-4.5,21.3-4.5,32.6v116.4c0,1.8,0.1,3.6,0.4,5.3H38.1C37.8,474.5,37.5,474.2,37.5,473.9z
		 M358.2,469.2c0,2.9-2.4,5.3-5.3,5.3H155.3h-9.7c-2.9,0-5.3-2.4-5.3-5.3V352.8c0-49.4,40.2-89.6,89.6-89.6h38.6
		c49.4,0,89.6,40.2,89.6,89.6L358.2,469.2L358.2,469.2z"/>
	<path class="st0" d="M489,49.4h-26.7V23c0-8-6.5-14.5-14.5-14.5c-8,0-14.5,6.5-14.5,14.5v26.5h-26.7c-8,0-14.5,6.5-14.5,14.5
		s6.5,14.5,14.5,14.5h26.7v26.4c0,8,6.5,14.5,14.5,14.5c8,0,14.5-6.5,14.5-14.5V78.4H489c8,0,14.5-6.5,14.5-14.5S497,49.4,489,49.4z
		"/>
</g>
</svg>
