<?xml version="1.0" encoding="utf-8"?>
<!-- Generator: Adobe Illustrator 23.0.2, SVG Export Plug-In . SVG Version: 6.00 Build 0)  -->
<svg version="1.1" id="Capa_1" xmlns="http://www.w3.org/2000/svg" xmlns:xlink="http://www.w3.org/1999/xlink" x="0px" y="0px"
	 viewBox="0 0 60 60" style="enable-background:new 0 0 60 60;" xml:space="preserve">
<style type="text/css">
	.st0{fill:none;stroke:#FFFFFF;stroke-miterlimit:10;}
	.st1{fill:#FFFFFF;stroke:#FFFFFF;stroke-miterlimit:10;}
</style>
<g>
	<path class="st0" d="M30.2,4.8C15.9,4.7,4.2,15.2,4.1,28.1c0,4.5,1.4,8.9,4.1,12.6c-0.5,5.6-1.9,9.9-3.9,11.9
		c-0.3,0.3-0.3,0.7-0.2,1c0.2,0.3,0.4,0.5,0.8,0.5H5c0.3-0.1,8.5-1.2,14.4-4.6c3.4,1.4,6.9,2.1,10.6,2.1c14.3,0.1,26-10.4,26.1-23.3
		C56.1,15.4,44.5,4.8,30.2,4.8z"/>
	<circle class="st1" cx="16.1" cy="29" r="3.3"/>
	<circle class="st1" cx="30.1" cy="29" r="3.3"/>
	<circle class="st1" cx="44.2" cy="29" r="3.3"/>
</g>
</svg>
