<?xml version="1.0" encoding="utf-8"?>
<!-- Generator: Adobe Illustrator 23.0.2, SVG Export Plug-In . SVG Version: 6.00 Build 0)  -->
<svg version="1.1" id="圖層_1" xmlns="http://www.w3.org/2000/svg" xmlns:xlink="http://www.w3.org/1999/xlink" x="0px" y="0px"
	 viewBox="0 0 595.3 841.9" style="enable-background:new 0 0 595.3 841.9;" xml:space="preserve">
<style type="text/css">
	.st0{fill:#FFFFFF;stroke:#000000;stroke-miterlimit:10;}
	.st1{fill:#1F4DA0;}
	.st2{fill:#B1BDE0;}
	.st3{fill:#FFFFFF;}
	.st4{fill:#CCCACA;}
	.st5{font-family:'Century';}
	.st6{font-size:26.782px;}
	.st7{letter-spacing:1.6;}
	.st8{fill:#999898;}
</style>
<path class="st0" d="M248.1,468.1"/>
<path class="st0" d="M330.6,346.6c0.6-0.4-10.1-23.8-28.6-45.5c0,0-35.9-34.9-35.9-34.9s29.2,20.2,41.1,34.4
	c11.9,14.2,17.1,22.8,18.4,26c1.3,3.1-0.4-4.4-0.4-4.4s-12.5-40.6-20.2-42.1l-0.2,7.4c0,0-5-27.1-35.3-34.3
	c-17-4-23.4-10.3-25.9-15.7c-2.2-4.8-2.1-9.8-2.1-9.8c0-1.6,0.2-2.2,0.1-2.2c-0.4-0.1-5.9,14.4-2.5,29.4c0.9,3.7,2.3,9.7,7.5,15
	c4.3,4.3,9.1,6.1,11.8,6.8c-7.5,1.8-11.5,0.6-13.7-1.2c-0.7-0.5-1.1-1.1-1.4-0.9c-1.2,0.6,2.4,15,12.1,26.2
	c8.9,10.4,21.9,16.8,30.5,18c10.6,1.4,2.1,1.7-1.2,1.6c-3.3-0.1-10.2-1.5-10.2-1.5s3.4,9.2,17.9,9.9s18.6-0.8,18.6-0.8
	c1.3,0.6,2.7,1.4,4.1,2.2c5.5,3.5,9.2,7.8,11,10.5c0.2,0.3,0.6,0.9,1.2,1.9C328.5,344.1,330.5,346.7,330.6,346.6z"/>
<path class="st1" d="M240.3,234.2c-0.5,1.9-4.2,18.4,6.8,31.3c6.2,7.3,14.1,9.8,17.5,10.7c-1.3,0.9-2.9,1.9-5,2.6
	c-6.1,2.1-11.6,0.4-13.8-0.3c3.1,10,8.1,16.5,11.1,19.8c5.2,5.7,10.8,9.1,14.1,11.1c5.5,3.3,11.1,5.6,12.3,6.1
	c7.3,3,11.4,3.5,11.3,4.5c-0.1,0.8-2.7,1.7-15.3,2.2c2.1,1.1,5.1,2.5,9,3.5c4.4,1.1,7.9,1.1,11.8,1.1c3.3,0,7.8-0.2,13.1-1.1
	c-0.1-0.1-0.2-0.3-0.4-0.5c-3.9-4.9-6.8-8.6-7-8.9c-5-6.5-49.7-52.3-58.9-66.3c-3.7-5.6-5.7-11.7-5.7-11.7
	C240.9,236.7,240.5,235.2,240.3,234.2z"/>
<path class="st2" d="M258.4,253.8c4.7,0.1,12.7,0.9,21,5.5c17.3,9.4,22.2,27.3,23.1,30.9c-4.8-5.4-10.4-11.1-17.1-16.9
	C275.9,264.9,266.6,258.6,258.4,253.8z"/>
<path class="st3" d="M325.3,280.5"/>
<path class="st4" d="M296.9,334.5"/>
<path class="st4" d="M309.6,323.9"/>
<path class="st4" d="M315.2,326.9"/>
<path class="st4" d="M313.8,327.1"/>
<path class="st1" d="M313.4,325.8c2.3,2.5,4.5,5,6.8,7.5c-1.8-1.4-3.4-2.6-4.6-3.5c-2-1.4-3-2-3.9-2.6c-1-0.5-1.8-0.9-2.4-1.2
	C310.7,325.9,312,325.8,313.4,325.8z"/>
<text transform="matrix(1.286 0 0 1 240.3818 371.0262)" class="st5 st6 st7">Frizo</text>
<path class="st8" d="M240.4,233.5"/>
<path class="st1" d="M298,326.6"/>
<path class="st1" d="M308.8,336.8"/>
<path class="st1" d="M312.5,334.6"/>
</svg>
