<?xml version="1.0" encoding="utf-8"?>
<!-- Generator: Adobe Illustrator 23.0.2, SVG Export Plug-In . SVG Version: 6.00 Build 0)  -->
<svg version="1.1" id="Capa_1" xmlns="http://www.w3.org/2000/svg" xmlns:xlink="http://www.w3.org/1999/xlink" x="0px" y="0px"
	 viewBox="0 0 512 512" style="enable-background:new 0 0 512 512;" xml:space="preserve">
<style type="text/css">
	.st0{fill:#FFFFFF;}
</style>
<path class="st0" d="M884.6,260c22.9-18.1,37.7-46.1,37.7-77.5c0-54.5-44.5-98.8-99.3-98.8c-54.7,0-99.3,44.3-99.3,98.8
	c0,3.6,0.2,7.1,0.6,10.6c-11.3-6.2-24.2-9.7-38-9.7c-43.7,0-79.2,35.4-79.2,78.9c0,22.7,9.7,43.2,25.1,57.6
	c-34.2,15-58.2,49.3-58.2,89v91.8c0,16.9,13.7,30.6,30.6,30.6h111.2h10h204.4c19.6,0,35.5-15.9,35.5-35.5V375.4
	C965.7,322.4,931.8,277.1,884.6,260L884.6,260z M823,113.7c38.2,0,69.3,30.9,69.3,68.8s-31.1,68.8-69.3,68.8
	c-38.2,0-69.3-30.9-69.3-68.8S784.8,113.7,823,113.7z M686.3,213.4c27.2,0,49.2,21.9,49.2,48.9c0,3.9-0.5,7.8-1.4,11.6
	c-13.8,9.4-25.6,21.5-34.6,35.6c-4.3,1.2-8.7,1.8-13.3,1.8c-27.1,0-49.2-21.9-49.2-48.9C637.1,235.4,659.2,213.4,686.3,213.4
	L686.3,213.4z M604,500.7v-91.8c0-37,30.1-67.1,67.1-67.1H685c-3.1,10.7-4.7,22-4.7,33.7v120.4c0,1.9,0.1,3.7,0.4,5.5h-76.1
	C604.3,501.3,604,501,604,500.7z M935.7,495.8c0,3-2.5,5.5-5.5,5.5H725.8h-10c-3,0-5.5-2.5-5.5-5.5V375.4
	c0-51.1,41.6-92.7,92.7-92.7h39.9c51.1,0,92.7,41.6,92.7,92.7V495.8z"/>
<path class="st0" d="M1071,61.6h-27.6V34.3c0-8.3-6.7-15-15-15c-8.3,0-15,6.7-15,15v27.4h-27.6c-8.3,0-15,6.7-15,15s6.7,15,15,15
	h27.6V119c0,8.3,6.7,15,15,15c8.3,0,15-6.7,15-15V91.6h27.6c8.3,0,15-6.7,15-15S1079.3,61.6,1071,61.6z"/>
</svg>
