<?xml version="1.0" encoding="utf-8"?>
<!-- Generator: Adobe Illustrator 23.0.2, SVG Export Plug-In . SVG Version: 6.00 Build 0)  -->
<svg version="1.1" id="Capa_1" xmlns="http://www.w3.org/2000/svg" xmlns:xlink="http://www.w3.org/1999/xlink" x="0px" y="0px"
	 viewBox="0 0 512 512" style="enable-background:new 0 0 512 512;" xml:space="preserve">
<style type="text/css">
	.st0{fill:#F9F9F9;}
</style>
<g>
	<g>
		<g>
			<path class="st0" d="M467.6,428.7l-36-59.9c-16.6-27.6-25.3-59.2-25.3-91.4v-52.4c0-80.7-65.7-146.3-146.3-146.3
				s-146.3,65.7-146.3,146.3v52.4c0,32.2-8.7,63.8-25.3,91.4l-36,59.9c-2,3.2-2,7.3-0.1,10.5c1.9,3.2,5.4,5.3,9.1,5.3h397.3
				c3.7,0,7.3-2.1,9.1-5.3C469.6,435.9,469.5,431.8,467.6,428.7z M79.8,423.6l26.4-44c18.5-30.9,28.3-66.2,28.3-102.2v-52.4
				c0-69.2,56.3-125.5,125.5-125.5s125.5,56.3,125.5,125.5v52.4c0,36,9.8,71.4,28.3,102.2l26.5,44L79.8,423.6L79.8,423.6z"/>
		</g>
	</g>
	<g>
		<g>
			<path class="st0" d="M260,5.3c-23,0-41.9,18.7-41.9,41.9V89c0,5.8,4.7,10.5,10.5,10.5s10.5-4.7,10.5-10.5V47.2
				c0-11.6,9.4-20.9,20.9-20.9c11.5,0,20.9,9.4,20.9,20.9V89c0,5.8,4.7,10.5,10.5,10.5s10.5-4.7,10.5-10.5V47.2
				C301.8,24.1,283,5.3,260,5.3z"/>
		</g>
	</g>
	<g>
		<g>
			<path class="st0" d="M305.3,428.7c-2.9-5-9.3-6.6-14.3-3.7c-5,2.9-6.7,9.3-3.7,14.3c2.7,4.6,4.2,10.2,4.2,15.6
				c0,17.3-14.1,31.4-31.4,31.4s-31.4-14.1-31.4-31.4c0-5.5,1.5-11,4.2-15.6c2.9-5,1.3-11.4-3.7-14.3c-5-2.8-11.4-1.3-14.3,3.7
				c-4.6,7.9-7.1,17-7.1,26.2c0,28.8,23.4,52.2,52.2,52.2s52.2-23.4,52.3-52.2C312.3,445.6,309.9,436.6,305.3,428.7z"/>
		</g>
	</g>
</g>
</svg>
