<?xml version="1.0" encoding="utf-8"?>
<!-- Generator: Adobe Illustrator 23.0.2, SVG Export Plug-In . SVG Version: 6.00 Build 0)  -->
<svg version="1.1" id="Capa_1" xmlns="http://www.w3.org/2000/svg" xmlns:xlink="http://www.w3.org/1999/xlink" x="0px" y="0px"
	 viewBox="0 0 60 60" style="enable-background:new 0 0 60 60;" xml:space="preserve">
<style type="text/css">
	.st0{fill:none;stroke:#FFFFFF;stroke-miterlimit:10;}
	.st1{fill:#FFFFFF;stroke:#FFFFFF;stroke-miterlimit:10;}
</style>
<g>
	<path class="st0" d="M145.8,1.6c-16.5-0.1-30,12-30.1,26.9c0,5.2,1.6,10.3,4.7,14.6c-0.6,6.5-2.2,11.4-4.5,13.7
		c-0.3,0.3-0.4,0.8-0.2,1.2c0.2,0.3,0.5,0.6,0.9,0.6c0,0,0.1,0,0.1,0c0.4-0.1,9.8-1.4,16.6-5.3c3.9,1.6,8,2.4,12.2,2.4
		c16.5,0.1,30-12,30.1-26.9C175.8,13.8,162.4,1.6,145.8,1.6z"/>
	<circle class="st1" cx="129.6" cy="29.5" r="3.8"/>
	<circle class="st1" cx="145.7" cy="29.5" r="3.8"/>
	<circle class="st1" cx="162" cy="29.5" r="3.8"/>
</g>
</svg>
