<?xml version="1.0" encoding="utf-8"?>
<!-- Generator: Adobe Illustrator 23.0.2, SVG Export Plug-In . SVG Version: 6.00 Build 0)  -->
<svg version="1.1" id="圖層_1" xmlns="http://www.w3.org/2000/svg" xmlns:xlink="http://www.w3.org/1999/xlink" x="0px" y="0px"
	 viewBox="0 0 595.3 841.9" style="enable-background:new 0 0 595.3 841.9;" xml:space="preserve">
<style type="text/css">
	.st0{fill:#FFFFFF;stroke:#000000;stroke-miterlimit:10;}
	.st1{fill:#1F4DA0;}
	.st2{fill:#B1BDE0;}
	.st3{fill:#FFFFFF;}
	.st4{fill:#CCCACA;}
	.st5{font-family:'Century';}
	.st6{font-size:98.7134px;}
	.st7{letter-spacing:5.2;}
	.st8{fill:#999898;}
</style>
<path class="st0" d="M167.4,483.4"/>
<path class="st0" d="M461,568.9c2-1.3-33.5-78.8-94.7-150.7L247.4,302.5c0,0,96.7,66.9,136.2,114c39.4,47,56.6,75.5,61,86.1
	c4.3,10.3-1.3-14.6-1.3-14.6s-41.4-134.5-66.9-139.5l-0.7,24.5c0,0-16.6-89.8-116.9-113.6c-56.3-13.3-77.5-34.1-85.8-52
	c-7.3-15.9-7-32.5-7-32.5c0-5.3,0.7-7.3,0.3-7.3c-1.3-0.3-19.5,47.7-8.3,97.4c3,12.3,7.6,32.1,24.8,49.7
	c14.2,14.2,30.1,20.2,39.1,22.5c-24.8,6-38.1,2-45.4-4c-2.3-1.7-3.6-3.6-4.6-3c-4,2,8,49.7,40.1,86.8c29.5,34.5,72.5,55.7,101,59.6
	c35.1,4.6,7,5.6-4,5.3c-10.9-0.3-33.8-5-33.8-5s11.3,30.5,59.3,32.8s61.6-2.7,61.6-2.7c4.3,2,8.9,4.6,13.6,7.3
	c18.2,11.6,30.5,25.8,36.4,34.8c0.7,1,2,3,4,6.3C454.1,560.6,460.7,569.2,461,568.9z"/>
<path class="st1" d="M161.9,196.5c-1.7,6.3-13.9,61,22.5,103.7c20.5,24.2,46.7,32.5,58,35.4c-4.3,3-9.6,6.3-16.6,8.6
	c-20.2,7-38.4,1.3-45.7-1c10.3,33.1,26.8,54.7,36.8,65.6c17.2,18.9,35.8,30.1,46.7,36.8c18.2,10.9,36.8,18.6,40.7,20.2
	c24.2,9.9,37.8,11.6,37.4,14.9c-0.3,2.7-8.9,5.6-50.7,7.3c7,3.6,16.9,8.3,29.8,11.6c14.6,3.6,26.2,3.6,39.1,3.6
	c10.9,0,25.8-0.7,43.4-3.6c-0.3-0.3-0.7-1-1.3-1.7c-12.9-16.2-22.5-28.5-23.2-29.5C362.3,447,214.2,295.3,183.8,248.9
	c-12.3-18.6-18.9-38.8-18.9-38.8C163.9,204.8,162.6,199.9,161.9,196.5z"/>
<path class="st2" d="M221.9,261.5c15.6,0.3,42.1,3,69.6,18.2c57.3,31.1,73.5,90.4,76.5,102.4c-15.9-17.9-34.5-36.8-56.6-56
	C279.8,298.2,249,277.4,221.9,261.5z"/>
<path class="st3" d="M443.5,349.9"/>
<path class="st4" d="M349.4,528.8"/>
<path class="st4" d="M391.5,493.7"/>
<path class="st4" d="M410,503.6"/>
<path class="st4" d="M405.4,504.3"/>
<path class="st1" d="M404.1,500c7.6,8.3,14.9,16.6,22.5,24.8c-6-4.6-11.3-8.6-15.2-11.6c-6.6-4.6-9.9-6.6-12.9-8.6c-3.3-1.7-6-3-8-4
	C395.1,500.3,399.4,500,404.1,500z"/>
<text transform="matrix(1.1558 0 0 1 162.1713 658.4076)" class="st5 st6 st7">Frizo</text>
<path class="st8" d="M288.3,269.4"/>
<path class="st1" d="M353,502.6"/>
<path class="st1" d="M388.8,536.4"/>
<path class="st1" d="M401.1,529.1"/>
</svg>
